<?xml version="1.0" standalone="no"?><!DOCTYPE svg PUBLIC "-//W3C//DTD SVG 1.1//EN" "http://www.w3.org/Graphics/SVG/1.1/DTD/svg11.dtd"><svg t="1638238278553" class="icon" viewBox="0 0 1024 1024" version="1.1" xmlns="http://www.w3.org/2000/svg" p-id="1162" xmlns:xlink="http://www.w3.org/1999/xlink" width="200" height="200"><defs><style type="text/css"></style></defs><path d="M175.21066667 748.52266667c-46.848 0-84.94933333 38.10133333-84.94933334 84.94933333 0 46.82666667 38.10133333 84.928 84.94933334 84.928 46.82666667 0 84.928-38.10133333 84.928-84.928 0-46.848-38.10133333-84.94933333-84.928-84.94933333z m0 148.544c-35.072 0-63.616-28.544-63.616-63.59466667 0-35.072 28.544-63.616 63.616-63.616 35.05066667 0 63.59466667 28.544 63.59466666 63.616 0 35.05066667-28.544 63.59466667-63.59466666 63.59466667z" fill="#23130D" p-id="1163"></path><path d="M951.95733333 769.92L671.168 489.13066667l102.848-113.62133334c9.856 1.68533333 19.712 2.58133333 29.504 2.58133334 45.29066667 0 89.10933333-17.81333333 121.89866667-50.60266667 49.152-49.17333333 64.064-122.56 37.952-187.008a9.13066667 9.13066667 0 0 0-1.00266667-1.92 10.41066667 10.41066667 0 0 0-2.96533333-2.98666667c-0.256-0.17066667-0.53333333-0.29866667-0.81066667-0.42666666-0.34133333-0.192-0.66133333-0.40533333-1.024-0.55466667-0.29866667-0.128-0.61866667-0.192-0.93866667-0.29866667-0.34133333-0.10666667-0.68266667-0.23466667-1.04533333-0.29866666-0.27733333-0.064-0.576-0.064-0.85333333-0.10666667-0.40533333-0.04266667-0.78933333-0.10666667-1.19466667-0.10666667-0.29866667 0-0.61866667 0.064-0.91733333 0.08533334-0.384 0.02133333-0.74666667 0.02133333-1.13066667 0.10666666-1.36533333 0.256-2.688 0.78933333-3.904 1.57866667-0.59733333 0.40533333-1.152 0.85333333-1.664 1.36533333l-122.38933333 122.38933334-74.19733334-74.176 122.41066667-122.41066667a10.51733333 10.51733333 0 0 0 2.944-5.568c0.064-0.32 0.064-0.61866667 0.08533333-0.93866667 0.04266667-0.36266667 0.10666667-0.74666667 0.10666667-1.10933333-0.02133333-0.36266667-0.064-0.704-0.10666667-1.04533333-0.04266667-0.34133333-0.04266667-0.68266667-0.10666666-1.00266667-0.08533333-0.32-0.192-0.64-0.29866667-0.93866667-0.08533333-0.36266667-0.17066667-0.704-0.32-1.04533333-0.128-0.34133333-0.32-0.64-0.512-0.96-0.14933333-0.27733333-0.27733333-0.576-0.448-0.85333333-0.768-1.17333333-1.792-2.176-2.98666667-2.98666667-0.59733333-0.40533333-1.23733333-0.72533333-1.89866666-1.00266667-64.448-26.09066667-137.856-11.2-187.02933334 37.97333334-39.89333333 39.872-57.6 96.08533333-48.04266666 151.44533333l-175.44533334 158.82666667-233.17333333-233.152-29.376-76.33066667a10.63253333 10.63253333 0 0 0-5.46133333-5.84533333L99.73333333 36.48c-4.05333333-1.87733333-8.85333333-1.04533333-12.032 2.13333333L37.20533333 89.10933333a10.6624 10.6624 0 0 0-2.13333333 12.032l41.70666667 89.94133334c1.152 2.51733333 3.264 4.48 5.84533333 5.48266666L158.93333333 225.92l229.90933334 229.888L78.82666667 736.36266667c-0.064 0.064-0.128 0.14933333-0.192 0.21333333-0.064 0.04266667-0.128 0.08533333-0.17066667 0.128-53.33333333 53.35466667-53.33333333 140.16 0 193.49333333 26.66666667 26.66666667 61.696 40 96.74666667 40 35.02933333 0 70.05866667-13.33333333 96.72533333-40 0.064-0.04266667 0.10666667-0.128 0.17066667-0.192s0.14933333-0.10666667 0.21333333-0.192l224.53333333-248.10666666 271.65866667 271.65866666c24.49066667 24.49066667 57.04533333 37.97333333 91.69066667 37.97333334s67.22133333-13.48266667 91.712-37.99466667c24.512-24.49066667 37.99466667-57.06666667 38.016-91.712 0-34.64533333-13.48266667-67.22133333-37.97333334-91.712zM651.88266667 246.50666667l0.256-0.32c0.21333333-0.192 0.40533333-0.42666667 0.59733333-0.64 0.27733333-0.32 0.55466667-0.64 0.768-0.96 0.14933333-0.21333333 0.27733333-0.448 0.40533333-0.66133334 0.21333333-0.384 0.42666667-0.74666667 0.59733334-1.152 0.10666667-0.23466667 0.17066667-0.49066667 0.256-0.72533333 0.128-0.40533333 0.27733333-0.78933333 0.36266666-1.19466667 0.04266667-0.27733333 0.08533333-0.576 0.10666667-0.85333333 0.064-0.40533333 0.10666667-0.78933333 0.128-1.19466667 0-0.29866667-0.02133333-0.576-0.04266667-0.85333333-0.02133333-0.42666667-0.064-0.832-0.128-1.25866667-0.02133333-0.10666667-0.02133333-0.192-0.04266666-0.29866666-10.496-50.21866667 4.864-101.84533333 41.10933333-138.06933334a151.1552 151.1552 0 0 1 148.33066667-38.63466666l-117.86666667 117.888a10.63466667 10.63466667 0 0 0 0 15.08266666l89.25866667 89.28c2.00533333 2.00533333 4.71466667 3.11466667 7.552 3.11466667 2.816 0 5.52533333-1.10933333 7.53066666-3.11466667l117.888-117.888c14.89066667 52.43733333 0.55466667 109.184-38.63466666 148.352-36.224 36.24533333-87.82933333 51.60533333-138.048 41.088-0.128-0.02133333-0.23466667 0-0.34133334-0.02133333a8.256 8.256 0 0 0-1.04533333-0.10666667c-0.36266667-0.04266667-0.72533333-0.064-1.088-0.064-0.29866667 0.02133333-0.55466667 0.064-0.832 0.08533334-0.42666667 0.04266667-0.832 0.08533333-1.23733333 0.17066666-0.256 0.064-0.49066667 0.14933333-0.72533334 0.23466667-0.42666667 0.128-0.832 0.23466667-1.216 0.42666667-0.23466667 0.08533333-0.448 0.23466667-0.68266666 0.34133333-0.384 0.21333333-0.768 0.42666667-1.13066667 0.68266667-0.192 0.128-0.36266667 0.27733333-0.55466667 0.42666666-0.36266667 0.29866667-0.72533333 0.61866667-1.06666666 0.98133334-0.04266667 0.04266667-0.10666667 0.08533333-0.17066667 0.14933333l-106.112 117.22666667-20.69333333-20.69333334a10.67306667 10.67306667 0 0 0-7.552-3.136c-2.83733333 0-5.54666667 1.13066667-7.53066667 3.136l-51.392 51.392-96.10666667-96.10666666 179.09333334-162.112zM172.39466667 209.216c-0.02133333-0.02133333-0.064-0.04266667-0.08533334-0.064-0.192-0.192-0.40533333-0.32-0.59733333-0.49066667-0.34133333-0.29866667-0.704-0.61866667-1.088-0.85333333-0.02133333-0.02133333-0.08533333-0.04266667-0.10666667-0.064-0.576-0.36266667-1.17333333-0.66133333-1.81333333-0.91733333h-0.02133333L94.31466667 178.19733333 57.55733333 98.92266667l39.95733334-39.95733334 79.25333333 36.75733334 28.608 74.28266666c0.46933333 1.28 1.216 2.47466667 2.19733333 3.52 0.04266667 0.04266667 0.08533333 0.10666667 0.128 0.14933334 0.04266667 0.04266667 0.064 0.08533333 0.10666667 0.128L553.81333333 519.808 518.4 555.2 172.39466667 209.216z m84.39466666 705.96266667c-45.03466667 44.94933333-118.22933333 44.928-163.24266666-0.064-44.992-44.992-45.01333333-118.208-0.064-163.24266667l310.464-280.96 99.37066666 99.37066667-51.392 51.41333333a10.63466667 10.63466667 0 0 0 0 15.08266667l29.824 29.824-224.96 248.576z m680.04266667 23.08266666c-20.45866667 20.48-47.68 31.744-76.62933333 31.744s-56.14933333-11.264-76.608-31.72266666L503.63733333 658.32533333v-0.02133333h-0.02133333l-29.07733333-29.07733333 153.28-153.28 309.056 309.056c20.45866667 20.45866667 31.72266667 47.68 31.72266666 76.62933333-0.02133333 28.94933333-11.28533333 56.14933333-31.76533333 76.62933333z" fill="#23130D" p-id="1164"></path><path d="M936.87466667 785.00266667L627.81866667 475.94666667l-153.28 153.28 29.07733333 29.07733333h0.02133333v0.02133333l279.95733334 279.95733334c20.45866667 20.45866667 47.65866667 31.72266667 76.608 31.72266666 28.94933333 0 56.17066667-11.264 76.62933333-31.744 20.48-20.48 31.744-47.68 31.76533333-76.62933333 0-28.94933333-11.264-56.17066667-31.72266666-76.62933333z m-89.06666667 114.70933333a10.53866667 10.53866667 0 0 1-7.53066667 3.11466667 10.624 10.624 0 0 1-7.552-3.11466667L565.73866667 632.704a10.63466667 10.63466667 0 0 1 0-15.08266667 10.67306667 10.67306667 0 0 1 15.08266666 0l266.98666667 267.008a10.67306667 10.67306667 0 0 1 0 15.08266667z m50.496-50.47466667c-2.06933333 2.06933333-4.8 3.11466667-7.53066667 3.11466667-2.73066667 0-5.46133333-1.04533333-7.552-3.11466667L616.21333333 582.22933333a10.67306667 10.67306667 0 0 1 0-15.08266666 10.63466667 10.63466667 0 0 1 15.08266667 0l267.008 267.008a10.63466667 10.63466667 0 0 1 0 15.08266666z" fill="#F9C139" p-id="1165"></path><path d="M936.87466667 785.00266667L627.81866667 475.94666667l-26.66666667 26.66666666 309.056 309.056c20.45866667 20.45866667 31.72266667 47.68 31.72266667 76.62933334-0.02133333 22.57066667-6.86933333 44.07466667-19.584 62.144 5.12-3.584 9.96266667-7.65866667 14.48533333-12.18133334 20.48-20.48 31.744-47.68 31.76533333-76.62933333 0-28.94933333-11.264-56.17066667-31.72266666-76.62933333z" fill="#23130D" p-id="1166"></path><path d="M553.81333333 519.808L518.4 555.2 172.39466667 209.216c-0.02133333-0.02133333-0.064-0.04266667-0.08533334-0.064-0.192-0.192-0.40533333-0.32-0.59733333-0.49066667-0.34133333-0.29866667-0.704-0.61866667-1.088-0.85333333-0.02133333-0.02133333-0.08533333-0.04266667-0.10666667-0.064-0.576-0.36266667-1.17333333-0.66133333-1.81333333-0.91733333h-0.02133333L94.31466667 178.19733333 57.55733333 98.92266667l39.95733334-39.95733334 79.25333333 36.75733334 28.608 74.28266666c0.46933333 1.28 1.216 2.47466667 2.19733333 3.52 0.04266667 0.04266667 0.08533333 0.10666667 0.128 0.14933334 0.04266667 0.04266667 0.064 0.08533333 0.10666667 0.128L553.81333333 519.808z" fill="#E1E1E5" p-id="1167"></path><path d="M553.81333333 519.808l-17.6 17.6-346.00533333-346.00533333c-0.04266667-0.04266667-0.064-0.08533333-0.10666667-0.128-0.04266667-0.04266667-0.08533333-0.10666667-0.128-0.14933334-0.98133333-1.04533333-1.728-2.24-2.19733333-3.52L159.168 113.32266667 79.91466667 76.56533333l17.6-17.6 79.25333333 36.75733334 28.608 74.28266666c0.46933333 1.28 1.216 2.47466667 2.19733333 3.52 0.04266667 0.04266667 0.08533333 0.10666667 0.128 0.14933334 0.04266667 0.04266667 0.064 0.08533333 0.10666667 0.128L553.81333333 519.808z" fill="#23130D" p-id="1168"></path><path d="M451.92533333 621.696l51.392-51.41333333-99.37066666-99.37066667-310.464 280.96c-44.94933333 45.03466667-44.928 118.25066667 0.064 163.24266667 45.01333333 44.992 118.208 45.01333333 163.24266666 0.064l224.96-248.576-29.824-29.824a10.63466667 10.63466667 0 0 1 0-15.08266667zM175.21066667 918.4c-46.848 0-84.94933333-38.10133333-84.94933334-84.928 0-46.848 38.10133333-84.94933333 84.94933334-84.94933333 46.82666667 0 84.928 38.10133333 84.928 84.94933333 0 46.82666667-38.10133333 84.928-84.928 84.928z" fill="#E1E1E5" p-id="1169"></path><path d="M403.94666667 470.912L93.48266667 751.872a116.36266667 116.36266667 0 0 0-7.89333334 8.74666667l301.29066667-272.64 99.37066667 99.37066666 17.06666666-17.06666666-99.37066666-99.37066667z m47.97866666 150.784l-17.06666666 17.06666667a10.63466667 10.63466667 0 0 0 0 15.08266666l29.824 29.824-216.64 239.40266667c3.008-2.45333333 5.93066667-5.07733333 8.74666666-7.89333333l224.96-248.576-29.824-29.824a10.63466667 10.63466667 0 0 1 0-15.08266667z" fill="#23130D" p-id="1170"></path><path d="M910.31466667 312.40533333c-36.224 36.24533333-87.82933333 51.60533333-138.048 41.088-0.128-0.02133333-0.23466667 0-0.34133334-0.02133333a8.256 8.256 0 0 0-1.04533333-0.10666667c-0.36266667-0.04266667-0.72533333-0.064-1.088-0.064-0.29866667 0.02133333-0.55466667 0.064-0.832 0.08533334-0.42666667 0.04266667-0.832 0.08533333-1.23733333 0.17066666-0.256 0.064-0.49066667 0.14933333-0.72533334 0.23466667-0.42666667 0.128-0.832 0.23466667-1.216 0.42666667-0.23466667 0.08533333-0.448 0.23466667-0.68266666 0.34133333-0.384 0.21333333-0.768 0.42666667-1.13066667 0.68266667-0.192 0.128-0.36266667 0.27733333-0.55466667 0.42666666-0.36266667 0.29866667-0.72533333 0.61866667-1.06666666 0.98133334-0.04266667 0.04266667-0.10666667 0.08533333-0.17066667 0.14933333l-106.112 117.22666667-20.69333333-20.69333334a10.67306667 10.67306667 0 0 0-7.552-3.136c-2.83733333 0-5.54666667 1.13066667-7.53066667 3.136l-51.392 51.392-96.10666667-96.10666666 179.09333334-162.112 0.256-0.32c0.21333333-0.192 0.40533333-0.42666667 0.59733333-0.64 0.27733333-0.32 0.55466667-0.64 0.768-0.96 0.14933333-0.21333333 0.27733333-0.448 0.40533333-0.66133334 0.21333333-0.384 0.42666667-0.74666667 0.59733334-1.152 0.10666667-0.23466667 0.17066667-0.49066667 0.256-0.72533333 0.128-0.40533333 0.27733333-0.78933333 0.36266666-1.19466667 0.04266667-0.27733333 0.08533333-0.576 0.10666667-0.85333333 0.064-0.40533333 0.10666667-0.78933333 0.128-1.19466667 0-0.29866667-0.02133333-0.576-0.04266667-0.85333333-0.02133333-0.42666667-0.064-0.832-0.128-1.25866667-0.02133333-0.10666667-0.02133333-0.192-0.04266666-0.29866666-10.496-50.21866667 4.864-101.84533333 41.10933333-138.06933334a151.1552 151.1552 0 0 1 148.33066667-38.63466666l-117.86666667 117.888a10.63466667 10.63466667 0 0 0 0 15.08266666l89.25866667 89.28c2.00533333 2.00533333 4.71466667 3.11466667 7.552 3.11466667 2.816 0 5.52533333-1.10933333 7.53066666-3.11466667l117.888-117.888c14.89066667 52.43733333 0.55466667 109.184-38.63466666 148.352z" fill="#E1E1E5" p-id="1171"></path><path d="M492.39466667 390.89066667l95.168 95.168-18.66666667 18.66666666-96.10666667-96.10666666zM654.03733333 434.66666667l19.75466667 19.75466666-17.728 19.60533334-20.69333333-20.69333334a10.67306667 10.67306667 0 0 0-7.552-3.136c-2.83733333 0-5.54666667 1.13066667-7.53066667 3.136l18.66666667-18.66666666c1.984-2.00533333 4.69333333-3.136 7.53066666-3.136 2.83733333 0 5.54666667 1.13066667 7.552 3.136z" fill="#23130D" p-id="1172"></path><path d="M847.808 899.712a10.53866667 10.53866667 0 0 1-7.53066667 3.11466667 10.624 10.624 0 0 1-7.552-3.11466667L565.73866667 632.704a10.63466667 10.63466667 0 0 1 0-15.08266667 10.67306667 10.67306667 0 0 1 15.08266666 0l266.98666667 267.008a10.67306667 10.67306667 0 0 1 0 15.08266667zM898.304 849.23733333c-2.06933333 2.06933333-4.8 3.11466667-7.53066667 3.11466667-2.73066667 0-5.46133333-1.04533333-7.552-3.11466667L616.21333333 582.22933333a10.67306667 10.67306667 0 0 1 0-15.08266666 10.63466667 10.63466667 0 0 1 15.08266667 0l267.008 267.008a10.63466667 10.63466667 0 0 1 0 15.08266666z" fill="#FFFFFF" p-id="1173"></path></svg>